<svg
   xmlns:dc="http://purl.org/dc/elements/1.1/"
   xmlns:cc="http://creativecommons.org/ns#"
   xmlns:rdf="http://www.w3.org/1999/02/22-rdf-syntax-ns#"
   xmlns:svg="http://www.w3.org/2000/svg"
   xmlns="http://www.w3.org/2000/svg"
   id="svg21"
   version="1.1"
   viewBox="0 0  380 280">
  <metadata
     id="metadata27">
    <rdf:RDF>
      <cc:Work
         rdf:about="">
        <dc:format>image/svg+xml</dc:format>
        <dc:type
           rdf:resource="http://purl.org/dc/dcmitype/StillImage" />
      </cc:Work>
    </rdf:RDF>
  </metadata>
  <defs
     id="defs25" />
  <svg
     height="100%"
     width="100%"
     id="svg7"
     version="1.1"
     viewBox="0 0 380 280">
    <linearGradient
       y2="0"
       x2="1"
       y1="1"
       x1="0"
       id="icon_color_gradient">
      <stop
         id="stop2"
         stop-opacity="1"
         stop-color="#191E78"
         offset="0%" />
      <stop
         id="stop4"
         stop-opacity="1"
         stop-color="#2DD5FF"
         offset="100%" />
    </linearGradient>
  </svg>
  <g
     id="text9"
     style="font-size:40px;font-family:'Alibaba PuHuiTi Medium';fill:#2d5999;fill-opacity:1"
     aria-label="知">
    <path
       id="path29"
       style="font-size:40px;font-family:'Alibaba PuHuiTi Medium';fill:#2d5999;fill-opacity:1"
       d="m 131.17771,141.3425 q -0.2,1.6 -0.48,2.92 0.8,0.88 1.76,1.96 0.96,1.08 1.88,2.2 0.92,1.08 1.72,2.12 0.84,1.04 1.4,1.8 l -2.84,3.12 q -0.44,-0.64 -1.04,-1.48 -0.6,-0.84 -1.32,-1.72 -0.68,-0.92 -1.44,-1.84 -0.76,-0.92 -1.52,-1.76 -1.04,2.52 -2.68,4.96 -1.64,2.4 -4,4.92 l -3,-2.84 q 1.72,-1.8 3.08,-3.48 1.4,-1.72 2.36,-3.44 1,-1.76 1.64,-3.56 0.64,-1.84 0.88,-3.88 h -7.16 v -4 h 7.32 q 0,-0.6 0,-1.44 0,-0.88 0,-1.8 0.04,-0.92 0.04,-1.84 0,-0.92 0,-1.72 h -1.8 q -0.6,1.52 -1.24,2.96 -0.6,1.4 -1.2,2.52 l -3.2,-1.88 q 0.72,-1.4 1.4,-2.96 0.68,-1.56 1.28,-3.16 0.64,-1.6 1.12,-3.2 0.52,-1.6 0.88,-3.04 l 3.6,0.92 q -0.44,1.64 -1.16,3.84 h 9 v 4 h -5.04 q 0,0.8 0,1.76 0,0.96 -0.04,1.92 0,0.92 0,1.76 0,0.84 0,1.36 h 5.76 v 4 z m 22,-16.28 v 31.96 h -3.64 v -3.2 h -7.12 v 3.2 l -3.68,-0.04 v -31.92 z m -3.64,24.8 v -20.8 h -7.12 v 20.8 z" />
  </g>
  <g
     id="text11"
     style="font-size:40px;font-family:'Alibaba PuHuiTi Medium';fill:#2d5999;fill-opacity:1"
     aria-label="雀">
    <path
       id="path32"
       style="font-size:40px;font-family:'Alibaba PuHuiTi Medium';fill:#2d5999;fill-opacity:1"
       d="m 247.81729,153.0625 h 12.48 v 3.24 h -26 v 1.64 h -3.92 v -18.64 l -3.92,0.96 -0.96,-3.56 q 5.52,-1.16 10.12,-2.56 4.64,-1.44 8.52,-3.16 h -2.8 v -9.16 l 3.96,0.16 v 8.48 q 2.92,-1.44 5.4,-3 -0.56,-0.32 -1.08,-0.6 -0.52,-0.28 -0.96,-0.52 l 1.52,-3.16 q 1.04,0.52 2.36,1.2 1.32,0.68 2.68,1.44 1.36,0.76 2.68,1.56 1.32,0.76 2.4,1.44 l -1.52,3.6 q -1.6,-1.12 -3.68,-2.36 -2.04,-1.28 -4,-2.36 l 1.64,2.84 q -3.12,1.92 -6.8,3.56 -3.64,1.6 -7.92,3 h 8.8 q -0.2,-0.72 -0.44,-1.4 -0.24,-0.72 -0.48,-1.48 l 3.64,-0.64 q 0.28,0.72 0.56,1.68 0.32,0.92 0.6,1.84 h 8.48 v 3.24 l -11.36,-0.04 v 2.24 h 10.28 v 3.08 h -10.28 v 2.08 h 10.28 v 3.16 h -10.28 z m -9.12,-26.4 q -2.12,1.64 -4.68,3.4 -2.56,1.72 -5.04,3.12 l -2.16,-3.36 q 2.32,-1.2 4.96,-2.92 2.64,-1.72 4.92,-3.52 z m 5.16,13.64 -9.56,-0.04 v 2.28 h 9.56 z m 0,5.32 h -9.56 v 2.08 h 9.56 z m -9.56,7.44 h 9.56 v -2.2 h -9.56 z" />
  </g>
  <svg
     id="svg19"
     version="1.1"
     height="55"
     width="52.564575"
     y="112.5"
     x="163.71771">
    <g
       style="fill:url(#icon_color_gradient)"
       id="g17">
      <svg
         height="100%"
         width="100%"
         id="svg15"
         version="1.1"
         viewBox="0 0 1554 1626">
        <path
           style="fill-rule:evenodd;stroke:none"
           id="path13"
           d="m 1241.388,17.07 c -2.811,1.082 -5.84,2.772 -6.731,3.757 -0.891,0.984 -3.689,6.714 -6.218,12.731 -27.424,65.263 -95.508,228.091 -98.446,235.442 -2.088,5.225 -19.098,45.95 -37.798,90.5 -18.701,44.55 -39.938,95.175 -47.194,112.5 -15.302,36.538 -38.169,90.31 -38.662,90.917 -0.187,0.229 -0.525,0.229 -0.753,0 -0.665,-0.67 -8.13,-55.015 -13.587,-98.917 -8.258,-66.427 -12.596,-97.399 -13.998,-99.942 -1.364,-2.473 -8.225,9.399 -24.532,42.442 -37.021,75.02 -76.824,169.148 -94.895,224.411 -11.319,34.615 -22.45,75.471 -29.06,106.663 -1.39,6.559 -2.765,12.969 -3.057,14.244 l -0.529,2.318 -3.714,-3.098 C 815.053,745.064 792.408,728.277 783,721.967 749.482,699.486 708.258,678.894 669.5,665.271 630.945,651.719 575.034,639.878 559.762,642.03 c -10.678,1.504 -48.751,5.972 -50.553,5.932 -1.154,-0.026 -0.017,-1.617 3.497,-4.895 4.814,-4.492 5.04,-4.901 3,-5.448 -3.376,-0.905 -19.655,-0.731 -37.301,0.4 -23.507,1.507 -21.319,0.658 -26.396,10.241 -63.835,120.477 -143.439,222.609 -224.145,287.577 -65.672,52.865 -131.021,84.874 -200.35,98.133 -6.042,1.156 -11.363,2.479 -11.825,2.941 -1.293,1.293 9.122,18.786 13.195,22.161 6.337,5.25 -1.849,5.86 101.616,-7.576 11,-1.429 39.125,-5.034 62.5,-8.011 23.375,-2.978 60.05,-7.699 81.5,-10.491 82.901,-10.793 134.32,-17.349 227.5,-29.007 30.525,-3.819 68.427,-8.561 84.226,-10.538 15.799,-1.977 29.749,-3.449 31,-3.271 1.873,0.267 0.157,2.014 -9.726,9.902 -13.048,10.415 -50.722,39.28 -84,64.36 -27.888,21.017 -58.777,45.104 -61.018,47.58 -0.992,1.096 -1.468,2.327 -1.058,2.736 1.005,1.004 30.97,0.538 47.076,-0.731 100.696,-7.939 189.585,-18.984 242.5,-30.132 36.241,-7.635 79.537,-19.117 108.48,-28.77 8.24,-2.747 15.121,-4.856 15.291,-4.685 0.171,0.171 -0.38,4.754 -1.225,10.186 -3.671,23.613 -4.723,37.023 -5.257,67.035 -0.586,32.854 0.219,48.727 3.82,75.341 4.331,32.012 11.233,62.138 20.848,91 10.626,31.895 11.879,34.308 31.605,60.824 9.668,12.996 17.188,23.759 16.711,23.918 -0.477,0.159 -3.508,-0.619 -6.735,-1.729 -3.226,-1.11 -6.008,-1.876 -6.181,-1.703 -0.551,0.551 12.549,22.588 22.258,37.444 l 9.37,14.337 37.258,-0.666 c 38.122,-0.681 66.55,0.15 107.257,3.135 80.767,5.922 160.292,22.326 223,45.997 77.183,29.136 141.114,71.269 185.19,122.048 5.918,6.817 11.524,12.395 12.46,12.395 1.095,0 3.569,-3.266 6.953,-9.18 4.824,-8.43 5.259,-9.716 5.325,-15.75 l 0.072,-6.57 -21,-27.337 c -21.644,-28.174 -71.342,-93.37 -145.468,-190.828 -23.358,-30.709 -56.228,-73.835 -73.046,-95.835 -29.539,-38.641 -84.948,-111.719 -105.773,-139.5 -5.565,-7.425 -9.716,-13.641 -9.224,-13.814 1.371,-0.481 42.724,16.206 83.011,33.498 50.931,21.859 102.777,42.872 103.644,42.006 0.231,-0.232 -1.08,-3.294 -2.915,-6.806 -15.919,-30.475 -97.268,-143.738 -145.717,-202.884 -25.311,-30.9 -62.293,-69.919 -93.301,-98.44 l -20.591,-18.94 14.666,-5.833 c 43.488,-17.297 87.992,-43.111 124.897,-72.446 22.682,-18.029 51.022,-45.315 68.904,-66.341 16.93,-19.905 17.532,-20.899 29.354,-48.407 6.071,-14.127 11.582,-26.677 12.247,-27.889 1.086,-1.981 1.365,-1.409 2.762,5.661 l 1.554,7.866 7.654,-13.366 c 8.828,-15.417 20.842,-39.186 20.842,-41.234 0,-0.769 -6.466,-12.138 -14.369,-25.264 -18.718,-31.088 -32.31,-55.603 -46.222,-83.367 -86.634,-172.883 -109.64,-328.892 -67.193,-455.651 2.791,-8.333 4.798,-15.871 4.46,-16.75 -0.952,-2.483 -18.455,-2.157 -25.288,0.471 M 1058.212,483 c -7.711,24.205 -20.637,71.585 -26.6,97.5 -16.499,71.707 -25.904,137.384 -28.213,197 l -0.658,17 3.388,-3.212 3.388,-3.212 13.492,8.652 c 7.42,4.758 19.341,12.805 26.491,17.88 7.15,5.076 13.134,8.863 13.298,8.417 0.164,-0.447 -0.83,-8.848 -2.209,-18.669 -8.182,-58.289 -11.713,-109.81 -11.776,-171.856 -0.054,-53.132 2.649,-94.473 8.785,-134.332 2.506,-16.281 2.73,-21.81 0.614,-15.168 m -248.75,332.696 c -13.344,10.744 -49.096,37.073 -67.962,50.049 -70.02,48.162 -143.513,88.264 -207.5,113.226 -7.425,2.897 -13.708,5.459 -13.962,5.694 -1.267,1.168 11.504,-1.672 41.462,-9.222 54.81,-13.813 93.515,-25.941 144.5,-45.278 29.32,-11.121 73.058,-30.766 99.5,-44.69 l 17,-8.953 -4.895,-0.956 -4.895,-0.955 0.663,-15.056 c 0.364,-8.28 1.369,-22.628 2.232,-31.884 0.863,-9.256 1.401,-16.999 1.194,-17.205 -0.206,-0.207 -3.508,2.147 -7.337,5.23 m 124.335,73.298 c 0.936,1.646 1.928,2.993 2.203,2.993 0.275,0 1.267,-1.347 2.203,-2.993 L 939.907,886 H 936 932.093 l 1.704,2.994 m 50.704,108.344 1.353,4.494 -23.177,11.447 c -12.747,6.296 -25.757,12.521 -28.91,13.834 -3.153,1.313 -5.741,2.634 -5.75,2.936 -0.009,0.302 1.671,1.147 3.733,1.878 2.063,0.731 11.85,4.692 21.75,8.802 97.629,40.53 191.781,94.021 258.5,146.862 7.425,5.881 14.166,11.191 14.981,11.801 10.715,8.02 -65.731,-69.287 -89.487,-90.495 -49.105,-43.841 -91.044,-76.153 -137.379,-105.845 -7.911,-5.07 -14.966,-9.441 -15.676,-9.714 -1.04,-0.399 -1.028,0.378 0.062,4" />
      </svg>
    </g>
  </svg>
</svg>
